<?xml version="1.0" standalone="no"?><!DOCTYPE svg PUBLIC "-//W3C//DTD SVG 1.1//EN" "http://www.w3.org/Graphics/SVG/1.1/DTD/svg11.dtd"><svg t="1735226635049" class="icon" viewBox="0 0 1122 1024" version="1.1" xmlns="http://www.w3.org/2000/svg" p-id="4332" xmlns:xlink="http://www.w3.org/1999/xlink" width="219.140625" height="200"><path d="M112.219178 126.246575h897.753425c61.720548 0 112.219178 50.49863 112.219178 112.219178v673.315069c0 61.720548-50.49863 112.219178-112.219178 112.219178H112.219178c-61.720548 0-112.219178-50.49863-112.219178-112.219178V238.465753c0-61.720548 50.49863-112.219178 112.219178-112.219178z" fill="#2F77F1" p-id="4333"></path><path d="M771.506849 252.493151c-15.430137 0-28.054795-12.624658-28.054794-28.054795V28.054795c0-15.430137 12.624658-28.054795 28.054794-28.054795s28.054795 12.624658 28.054795 28.054795v196.383561c0 15.430137-12.624658 28.054795-28.054795 28.054795z m5.610959 218.827397c11.221918 11.221918 11.221918 29.457534 0 39.276712l-252.49315 252.493151c-2.805479 2.805479-5.610959 4.208219-9.819179 5.610959-11.221918 4.208219-22.443836 2.805479-30.860274-5.610959l-140.273972-140.273973c-11.221918-11.221918-11.221918-29.457534 0-39.276712 11.221918-11.221918 28.054795-11.221918 39.276712 0l120.635617 120.635616 232.854794-232.854794c12.624658-11.221918 29.457534-11.221918 40.679452 0zM350.684932 252.493151c-15.430137 0-28.054795-12.624658-28.054795-28.054795V28.054795c0-15.430137 12.624658-28.054795 28.054795-28.054795s28.054795 12.624658 28.054794 28.054795v196.383561c0 15.430137-12.624658 28.054795-28.054794 28.054795z" fill="#AFFCFE" p-id="4334"></path></svg>